<svg width="200" height="38" viewBox="0 0 200 38" fill="none" xmlns="http://www.w3.org/2000/svg">
<path d="M28.5391 19.1641V32.6875C28.0078 33.3281 27.1875 34.0234 26.0781 34.7734C24.9688 35.5078 23.5391 36.1406 21.7891 36.6719C20.0391 37.2031 17.9219 37.4688 15.4375 37.4688C13.2344 37.4688 11.2266 37.1094 9.41406 36.3906C7.60156 35.6562 6.03906 34.5859 4.72656 33.1797C3.42969 31.7734 2.42969 30.0547 1.72656 28.0234C1.02344 25.9766 0.671875 23.6406 0.671875 21.0156V18.8828C0.671875 16.2578 1.00781 13.9219 1.67969 11.875C2.36719 9.82812 3.34375 8.10156 4.60938 6.69531C5.875 5.28906 7.38281 4.21875 9.13281 3.48438C10.8828 2.75 12.8281 2.38281 14.9688 2.38281C17.9375 2.38281 20.375 2.86719 22.2812 3.83594C24.1875 4.78906 25.6406 6.11719 26.6406 7.82031C27.6562 9.50781 28.2812 11.4453 28.5156 13.6328H21.6953C21.5234 12.4766 21.1953 11.4688 20.7109 10.6094C20.2266 9.75 19.5312 9.07812 18.625 8.59375C17.7344 8.10938 16.5781 7.86719 15.1562 7.86719C13.9844 7.86719 12.9375 8.10938 12.0156 8.59375C11.1094 9.0625 10.3438 9.75781 9.71875 10.6797C9.09375 11.6016 8.61719 12.7422 8.28906 14.1016C7.96094 15.4609 7.79688 17.0391 7.79688 18.8359V21.0156C7.79688 22.7969 7.96875 24.375 8.3125 25.75C8.65625 27.1094 9.16406 28.2578 9.83594 29.1953C10.5234 30.1172 11.3672 30.8125 12.3672 31.2812C13.3672 31.75 14.5312 31.9844 15.8594 31.9844C16.9688 31.9844 17.8906 31.8906 18.625 31.7031C19.375 31.5156 19.9766 31.2891 20.4297 31.0234C20.8984 30.7422 21.2578 30.4766 21.5078 30.2266V24.1797H15.0859V19.1641H28.5391Z" fill="black"/>
<path d="M40.9141 1V37H34.1406V1H40.9141Z" fill="black"/>
<path d="M61.4922 30.9297V11.6406H68.2422V37H61.8906L61.4922 30.9297ZM62.2422 25.7266L64.2344 25.6797C64.2344 27.3672 64.0391 28.9375 63.6484 30.3906C63.2578 31.8281 62.6719 33.0781 61.8906 34.1406C61.1094 35.1875 60.125 36.0078 58.9375 36.6016C57.75 37.1797 56.3516 37.4688 54.7422 37.4688C53.5078 37.4688 52.3672 37.2969 51.3203 36.9531C50.2891 36.5938 49.3984 36.0391 48.6484 35.2891C47.9141 34.5234 47.3359 33.5469 46.9141 32.3594C46.5078 31.1562 46.3047 29.7109 46.3047 28.0234V11.6406H53.0547V28.0703C53.0547 28.8203 53.1406 29.4531 53.3125 29.9688C53.5 30.4844 53.7578 30.9062 54.0859 31.2344C54.4141 31.5625 54.7969 31.7969 55.2344 31.9375C55.6875 32.0781 56.1875 32.1484 56.7344 32.1484C58.125 32.1484 59.2188 31.8672 60.0156 31.3047C60.8281 30.7422 61.3984 29.9766 61.7266 29.0078C62.0703 28.0234 62.2422 26.9297 62.2422 25.7266Z" fill="black"/>
<path d="M80.1484 17.1719V37H73.3984V11.6406H79.75L80.1484 17.1719ZM87.7891 11.4766L87.6719 17.7344C87.3438 17.6875 86.9453 17.6484 86.4766 17.6172C86.0234 17.5703 85.6094 17.5469 85.2344 17.5469C84.2812 17.5469 83.4531 17.6719 82.75 17.9219C82.0625 18.1562 81.4844 18.5078 81.0156 18.9766C80.5625 19.4453 80.2188 20.0156 79.9844 20.6875C79.7656 21.3594 79.6406 22.125 79.6094 22.9844L78.25 22.5625C78.25 20.9219 78.4141 19.4141 78.7422 18.0391C79.0703 16.6484 79.5469 15.4375 80.1719 14.4062C80.8125 13.375 81.5938 12.5781 82.5156 12.0156C83.4375 11.4531 84.4922 11.1719 85.6797 11.1719C86.0547 11.1719 86.4375 11.2031 86.8281 11.2656C87.2188 11.3125 87.5391 11.3828 87.7891 11.4766Z" fill="black"/>
<path d="M118.445 19.1641V32.6875C117.914 33.3281 117.094 34.0234 115.984 34.7734C114.875 35.5078 113.445 36.1406 111.695 36.6719C109.945 37.2031 107.828 37.4688 105.344 37.4688C103.141 37.4688 101.133 37.1094 99.3203 36.3906C97.5078 35.6562 95.9453 34.5859 94.6328 33.1797C93.3359 31.7734 92.3359 30.0547 91.6328 28.0234C90.9297 25.9766 90.5781 23.6406 90.5781 21.0156V18.8828C90.5781 16.2578 90.9141 13.9219 91.5859 11.875C92.2734 9.82812 93.25 8.10156 94.5156 6.69531C95.7812 5.28906 97.2891 4.21875 99.0391 3.48438C100.789 2.75 102.734 2.38281 104.875 2.38281C107.844 2.38281 110.281 2.86719 112.188 3.83594C114.094 4.78906 115.547 6.11719 116.547 7.82031C117.562 9.50781 118.188 11.4453 118.422 13.6328H111.602C111.43 12.4766 111.102 11.4688 110.617 10.6094C110.133 9.75 109.438 9.07812 108.531 8.59375C107.641 8.10938 106.484 7.86719 105.062 7.86719C103.891 7.86719 102.844 8.10938 101.922 8.59375C101.016 9.0625 100.25 9.75781 99.625 10.6797C99 11.6016 98.5234 12.7422 98.1953 14.1016C97.8672 15.4609 97.7031 17.0391 97.7031 18.8359V21.0156C97.7031 22.7969 97.875 24.375 98.2188 25.75C98.5625 27.1094 99.0703 28.2578 99.7422 29.1953C100.43 30.1172 101.273 30.8125 102.273 31.2812C103.273 31.75 104.438 31.9844 105.766 31.9844C106.875 31.9844 107.797 31.8906 108.531 31.7031C109.281 31.5156 109.883 31.2891 110.336 31.0234C110.805 30.7422 111.164 30.4766 111.414 30.2266V24.1797H104.992V19.1641H118.445Z" fill="black"/>
<path d="M135.367 37.4688C133.398 37.4688 131.633 37.1562 130.07 36.5312C128.508 35.8906 127.18 35.0078 126.086 33.8828C125.008 32.7578 124.18 31.4531 123.602 29.9688C123.023 28.4688 122.734 26.875 122.734 25.1875V24.25C122.734 22.3281 123.008 20.5703 123.555 18.9766C124.102 17.3828 124.883 16 125.898 14.8281C126.93 13.6562 128.18 12.7578 129.648 12.1328C131.117 11.4922 132.773 11.1719 134.617 11.1719C136.414 11.1719 138.008 11.4688 139.398 12.0625C140.789 12.6562 141.953 13.5 142.891 14.5938C143.844 15.6875 144.562 17 145.047 18.5312C145.531 20.0469 145.773 21.7344 145.773 23.5938V26.4062H125.617V21.9062H139.141V21.3906C139.141 20.4531 138.969 19.6172 138.625 18.8828C138.297 18.1328 137.797 17.5391 137.125 17.1016C136.453 16.6641 135.594 16.4453 134.547 16.4453C133.656 16.4453 132.891 16.6406 132.25 17.0312C131.609 17.4219 131.086 17.9688 130.68 18.6719C130.289 19.375 129.992 20.2031 129.789 21.1562C129.602 22.0938 129.508 23.125 129.508 24.25V25.1875C129.508 26.2031 129.648 27.1406 129.93 28C130.227 28.8594 130.641 29.6016 131.172 30.2266C131.719 30.8516 132.375 31.3359 133.141 31.6797C133.922 32.0234 134.805 32.1953 135.789 32.1953C137.008 32.1953 138.141 31.9609 139.188 31.4922C140.25 31.0078 141.164 30.2812 141.93 29.3125L145.211 32.875C144.68 33.6406 143.953 34.375 143.031 35.0781C142.125 35.7812 141.031 36.3594 139.75 36.8125C138.469 37.25 137.008 37.4688 135.367 37.4688Z" fill="black"/>
<path d="M161.289 37.4688C159.32 37.4688 157.555 37.1562 155.992 36.5312C154.43 35.8906 153.102 35.0078 152.008 33.8828C150.93 32.7578 150.102 31.4531 149.523 29.9688C148.945 28.4688 148.656 26.875 148.656 25.1875V24.25C148.656 22.3281 148.93 20.5703 149.477 18.9766C150.023 17.3828 150.805 16 151.82 14.8281C152.852 13.6562 154.102 12.7578 155.57 12.1328C157.039 11.4922 158.695 11.1719 160.539 11.1719C162.336 11.1719 163.93 11.4688 165.32 12.0625C166.711 12.6562 167.875 13.5 168.812 14.5938C169.766 15.6875 170.484 17 170.969 18.5312C171.453 20.0469 171.695 21.7344 171.695 23.5938V26.4062H151.539V21.9062H165.062V21.3906C165.062 20.4531 164.891 19.6172 164.547 18.8828C164.219 18.1328 163.719 17.5391 163.047 17.1016C162.375 16.6641 161.516 16.4453 160.469 16.4453C159.578 16.4453 158.812 16.6406 158.172 17.0312C157.531 17.4219 157.008 17.9688 156.602 18.6719C156.211 19.375 155.914 20.2031 155.711 21.1562C155.523 22.0938 155.43 23.125 155.43 24.25V25.1875C155.43 26.2031 155.57 27.1406 155.852 28C156.148 28.8594 156.562 29.6016 157.094 30.2266C157.641 30.8516 158.297 31.3359 159.062 31.6797C159.844 32.0234 160.727 32.1953 161.711 32.1953C162.93 32.1953 164.062 31.9609 165.109 31.4922C166.172 31.0078 167.086 30.2812 167.852 29.3125L171.133 32.875C170.602 33.6406 169.875 34.375 168.953 35.0781C168.047 35.7812 166.953 36.3594 165.672 36.8125C164.391 37.25 162.93 37.4688 161.289 37.4688Z" fill="black"/>
<path d="M182.289 0.976562V37H175.539V0.976562H182.289ZM198.273 11.6406L187.258 24.2031L181.352 30.1797L178.891 25.3047L183.578 19.3516L190.164 11.6406H198.273ZM191.266 37L183.766 25.2812L188.43 21.2031L199.047 37H191.266Z" fill="black"/>
</svg>
