<svg width="116" height="80" viewBox="0 0 116 80" fill="none" xmlns="http://www.w3.org/2000/svg">
<g clip-path="url(#clip0_4_78)">
<path d="M112.581 15.6999C112.009 15.8151 111.437 15.9223 110.865 16.0222C107.369 16.631 107.048 15.8277 109.579 14.0555C110.712 13.2614 111.714 12.3976 112.583 11.4647C114.533 9.3728 112.842 8.4605 109.525 9.43769C108.342 9.78627 107.139 10.1023 105.92 10.3841C102.503 11.1756 97.6533 9.98168 94.6082 8.64973C90.7639 6.96846 86.395 6.12827 81.4999 6.12827C74.6431 6.12827 68.7988 7.796 63.9634 11.1288C59.1296 14.4634 56.7114 18.4952 56.7114 23.2228C56.7114 23.8693 56.7649 24.5257 56.8707 25.1912C57.0444 26.2745 54.399 27.0598 50.829 26.7121C43.1067 25.9602 35.7697 24.3465 28.8166 21.8727C21.9208 19.4197 15.8347 16.3327 10.5594 12.6117C8.03771 10.8334 4.62717 10.9865 3.68561 13.3872C3.12149 14.8263 2.84092 16.3229 2.84092 17.8773C2.84092 20.8066 3.83838 23.5235 5.83371 26.0279C6.82605 27.2742 7.98821 28.4025 9.32278 29.4121C11.5675 31.1115 11.224 32.0975 8.09937 31.4933C4.97601 30.8891 2.68709 29.9921 2.68709 30.0507C2.68709 30.1093 2.68709 30.1569 2.68709 30.1569C2.68709 34.284 4.56615 37.9104 8.3266 41.0325C10.643 42.956 13.3341 44.4418 16.3988 45.4883C19.6306 46.5924 21.1361 47.2082 19.3289 47.3694C18.2386 47.4667 17.1418 47.5152 16.0385 47.5152C15.2917 47.5152 14.5083 47.4918 13.6909 47.4442C12.3981 47.3685 12.1658 49.2262 14.1257 51.3138C15.6834 52.9725 17.6773 54.4322 20.1062 55.6931C22.5767 56.9763 25.2392 57.8974 28.0894 58.4585C31.5576 59.1402 32.2536 60.3821 29.1613 61.6608C21.5096 64.8272 13.0418 66.4102 3.75922 66.4102C2.71333 66.4102 1.71567 66.394 0.762589 66.3625C-0.891798 66.3076 0.218097 67.3125 3.41187 68.4661C13.3918 72.071 24.1995 73.8719 35.8365 73.8719C44.6348 73.8719 52.8976 72.9112 60.6237 70.9884C68.3471 69.0658 74.9478 66.4893 80.4215 63.261C85.8953 60.0327 90.6156 56.3198 94.5811 52.1206C98.5456 47.9215 101.499 43.5376 103.445 38.9694C105.388 34.4001 106.36 29.8219 106.36 25.2347C106.36 24.8213 106.355 24.4502 106.346 24.1234C106.328 23.5092 108.684 21.8468 111.313 20.1458C112.5 19.3777 113.632 18.5717 114.714 17.7262C117.099 15.8592 116.042 15.0037 112.581 15.6999Z" fill="#09D3FF"/>
</g>
<defs>
<clipPath id="clip0_4_78">
<rect width="116" height="80" fill="white"/>
</clipPath>
</defs>
</svg>
