<svg width="132" height="121" viewBox="0 0 132 121" fill="none" xmlns="http://www.w3.org/2000/svg">
<path d="M126.855 25.2324C122.09 20.0403 113.293 17.9224 96.4924 17.9224H35.5063C18.3212 17.9224 9.37498 20.1769 4.62809 25.7047C0 31.0943 0 39.0354 0 50.0261V70.9743C0 92.2668 5.4912 103.078 35.5063 103.078H96.4929C111.062 103.078 119.136 101.209 124.358 96.6267C129.715 91.928 132 84.2562 132 70.9743V50.0261C132 38.4355 131.642 30.4475 126.855 25.2324ZM84.7444 63.3923L57.0508 76.6597C56.4317 76.9564 55.7547 77.1035 55.0785 77.1035C54.3129 77.1035 53.549 76.9146 52.8724 76.5391C51.5984 75.8315 50.8204 74.5657 50.8204 73.2003V46.7505C50.8204 45.3875 51.5962 44.1228 52.8677 43.4148C54.1396 42.7068 55.7215 42.6584 57.041 43.2868L84.7346 56.4687C86.1436 57.1393 87.0285 58.4727 87.0306 59.9274C87.0323 61.3833 86.1513 62.7186 84.7444 63.3923Z" fill="#FF0707"/>
</svg>
